# xmcd
#
# Track frame offsets:
#	150
#	17980
#	35826
#	54703
#	72601
#	92477
#	120757
#	137399
#	155108
#	173909
#	193645
#	210979
#
# Disc length: 3003 seconds
#
# Revision: 1
# Processed by: cddbd v1.5.2PL0 Copyright (c) Steve Scherf et al.
# Submitted via: audiograbber 1.83.01
#
DISCID=a50bb90c
DTITLE=The Eric Gales Band  - Psychedelic Underground
DYEAR=2007
DGENRE=Blues
TTITLE0=Rumble
TTITLE1=I've Got Something On You
TTITLE2=Day of Reckoning
TTITLE3=Pretty Lie
TTITLE4=The Psychedelic Underground
TTITLE5=Dark Corners Of My Mind
TTITLE6=Wake Up Call
TTITLE7=Honey In The Comb
TTITLE8=Circling The Drain
TTITLE9=Someday
TTITLE10=Crossing The Line
TTITLE11=Somebody Else's Problem
EXTD=
EXTT0=
EXTT1=
EXTT2=
EXTT3=
EXTT4=
EXTT5=
EXTT6=
EXTT7=
EXTT8=
EXTT9=
EXTT10=
EXTT11=
PLAYORDER=
